<svg xmlns="http://www.w3.org/2000/svg" viewBox="-324.0 -324.0 2961.9 2717.9" role="img" aria-label="Primo"><title>Primo</title><g transform="translate(0.000000,2072.000000) scale(0.100000,-0.100000)"><path d="M0 10360 c0 -5698 2 -10360 5 -10360 3 0 82 76 175 170 93 94 174
170 180 170 6 0 91 81 190 180 99 99 184 180 190 180 6 0 82 72 170 160 88 88
164 160 170 160 6 0 96 85 200 190 104 104 194 190 200 190 6 0 100 90 210
200 110 110 204 200 210 200 6 0 91 81 190 180 99 99 184 180 190 180 6 0 82
72 170 160 88 88 164 160 170 160 6 0 87 77 180 170 93 94 176 170 185 170 8
0 15 9 15 20 0 11 7 20 15 20 9 0 96 81 195 180 99 99 184 180 190 180 6 0 96
86 200 190 104 105 194 190 200 190 6 0 78 67 160 150 82 82 154 150 160 150
6 0 100 90 210 200 110 110 204 200 210 200 6 0 96 85 200 190 104 104 194
190 200 190 6 0 91 81 190 180 99 99 184 180 190 180 6 0 91 81 190 180 99 99
184 180 190 180 6 0 91 81 190 180 99 99 184 180 190 180 6 0 87 76 180 170
93 93 176 170 185 170 8 0 15 9 15 20 0 11 7 20 15 20 9 0 92 76 185 170 93
94 174 170 180 170 6 0 87 77 180 170 93 94 174 170 180 170 6 0 96 86 200
190 104 105 194 190 200 190 6 0 96 86 200 190 104 105 196 190 205 190 8 0
15 9 15 20 0 11 7 20 15 20 9 0 83 68 165 150 82 83 154 150 160 150 6 0 91
81 190 180 99 99 184 180 190 180 6 0 91 81 190 180 99 99 184 180 190 180 6
0 100 90 210 200 110 110 204 200 210 200 6 0 82 72 170 160 88 88 164 160
170 160 6 0 91 81 190 180 99 99 184 180 190 180 6 0 96 85 200 190 104 105
194 190 200 190 6 0 100 90 210 200 110 110 204 200 210 200 6 0 82 72 170
160 88 88 164 160 170 160 6 0 91 81 190 180 99 99 184 180 190 180 6 0 96 86
200 190 104 105 194 190 200 190 6 0 66 56 135 125 125 125 125 125 91 160
-20 19 -40 35 -47 35 -6 0 -24 14 -39 30 -15 17 -34 30 -42 30 -7 0 -20 9 -28
20 -8 11 -21 20 -28 20 -8 0 -27 14 -42 30 -15 17 -34 30 -42 30 -7 0 -20 9
-28 20 -8 11 -21 20 -28 20 -8 0 -27 14 -42 30 -15 17 -34 30 -42 30 -7 0 -20
9 -28 20 -8 11 -21 20 -28 20 -8 0 -27 14 -42 30 -15 17 -34 30 -42 30 -7 0
-20 9 -28 20 -8 11 -21 20 -30 20 -9 0 -22 9 -30 20 -8 11 -21 20 -28 20 -8 0
-27 14 -42 30 -15 17 -33 30 -40 30 -7 0 -25 14 -40 30 -15 17 -34 30 -42 30
-7 0 -20 9 -28 20 -8 11 -21 20 -28 20 -8 0 -27 14 -42 30 -15 17 -34 30 -42
30 -7 0 -20 9 -28 20 -8 11 -21 20 -30 20 -9 0 -22 9 -30 20 -8 11 -21 20 -28
20 -8 0 -27 14 -42 30 -15 17 -33 30 -40 30 -7 0 -25 14 -40 30 -15 17 -34 30
-42 30 -7 0 -20 9 -28 20 -8 11 -21 20 -28 20 -8 0 -27 14 -42 30 -15 17 -34
30 -42 30 -7 0 -20 9 -28 20 -8 11 -21 20 -30 20 -9 0 -22 9 -30 20 -8 11 -21
20 -28 20 -8 0 -27 14 -42 30 -15 17 -33 30 -40 30 -7 0 -25 14 -40 30 -15 17
-34 30 -42 30 -7 0 -20 9 -28 20 -8 11 -21 20 -30 20 -9 0 -22 9 -30 20 -8 11
-21 20 -28 20 -8 0 -27 14 -42 30 -15 17 -34 30 -42 30 -7 0 -20 9 -28 20 -8
11 -21 20 -28 20 -8 0 -27 14 -42 30 -15 17 -34 30 -42 30 -7 0 -20 9 -28 20
-8 11 -21 20 -28 20 -8 0 -27 14 -42 30 -15 17 -34 30 -42 30 -7 0 -20 9 -28
20 -8 11 -21 20 -28 20 -8 0 -27 14 -42 30 -15 17 -33 30 -40 30 -7 0 -25 14
-40 30 -15 17 -34 30 -42 30 -7 0 -20 9 -28 20 -8 11 -21 20 -28 20 -8 0 -27
14 -42 30 -15 17 -34 30 -42 30 -7 0 -20 9 -28 20 -8 11 -21 20 -30 20 -9 0
-22 9 -30 20 -8 11 -21 20 -28 20 -8 0 -27 14 -42 30 -15 17 -33 30 -40 30 -7
0 -25 14 -40 30 -15 17 -34 30 -42 30 -7 0 -20 9 -28 20 -8 11 -21 20 -30 20
-9 0 -22 9 -30 20 -8 11 -21 20 -28 20 -8 0 -27 14 -42 30 -15 17 -34 30 -42
30 -7 0 -20 9 -28 20 -8 11 -21 20 -28 20 -8 0 -27 14 -42 30 -15 17 -34 30
-42 30 -7 0 -20 9 -28 20 -8 11 -21 20 -28 20 -8 0 -27 14 -42 30 -15 17 -34
30 -42 30 -7 0 -20 9 -28 20 -8 11 -21 20 -28 20 -8 0 -27 14 -42 30 -15 17
-33 30 -40 30 -7 0 -25 14 -40 30 -15 17 -34 30 -42 30 -7 0 -20 9 -28 20 -8
11 -21 20 -28 20 -8 0 -27 14 -42 30 -15 17 -34 30 -42 30 -7 0 -20 9 -28 20
-8 11 -21 20 -30 20 -9 0 -22 9 -30 20 -8 11 -21 20 -28 20 -8 0 -27 14 -42
30 -15 17 -33 30 -40 30 -7 0 -25 14 -40 30 -15 17 -34 30 -42 30 -7 0 -20 9
-28 20 -8 11 -21 20 -30 20 -9 0 -22 9 -30 20 -8 11 -21 20 -28 20 -8 0 -27
14 -42 30 -15 17 -34 30 -42 30 -7 0 -20 9 -28 20 -8 11 -21 20 -28 20 -8 0
-27 14 -42 30 -15 17 -34 30 -42 30 -7 0 -20 9 -28 20 -8 11 -21 20 -28 20 -8
0 -27 14 -42 30 -15 17 -34 30 -42 30 -7 0 -20 9 -28 20 -8 11 -21 20 -28 20
-8 0 -27 14 -42 30 -15 17 -34 30 -42 30 -7 0 -20 9 -28 20 -8 11 -21 20 -28
20 -8 0 -27 14 -42 30 -15 17 -33 30 -40 30 -7 0 -25 14 -40 30 -15 17 -34 30
-42 30 -7 0 -20 9 -28 20 -8 11 -21 20 -30 20 -9 0 -22 9 -30 20 -8 11 -21 20
-28 20 -8 0 -27 14 -42 30 -15 17 -34 30 -42 30 -7 0 -20 9 -28 20 -8 11 -21
20 -28 20 -8 0 -27 14 -42 30 -15 17 -34 30 -42 30 -7 0 -20 9 -28 20 -8 11
-21 20 -28 20 -8 0 -27 14 -42 30 -15 17 -34 30 -42 30 -7 0 -20 9 -28 20 -8
11 -21 20 -28 20 -8 0 -27 14 -42 30 -15 17 -34 30 -42 30 -7 0 -20 9 -28 20
-8 11 -21 20 -28 20 -8 0 -27 14 -42 30 -15 17 -34 30 -42 30 -7 0 -20 9 -28
20 -8 11 -21 20 -28 20 -8 0 -27 14 -42 30 -15 17 -34 30 -42 30 -7 0 -20 9
-28 20 -8 11 -21 20 -28 20 -8 0 -27 14 -42 30 -15 17 -33 30 -40 30 -7 0 -25
14 -40 30 -15 17 -34 30 -42 30 -7 0 -20 9 -28 20 -8 11 -21 20 -30 20 -9 0
-22 9 -30 20 -8 11 -21 20 -28 20 -8 0 -27 14 -42 30 -15 17 -34 30 -42 30 -7
0 -20 9 -28 20 -8 11 -21 20 -28 20 -8 0 -27 14 -42 30 -15 17 -34 30 -42 30
-7 0 -20 9 -28 20 -8 11 -21 20 -28 20 -8 0 -27 14 -42 30 -15 17 -34 30 -42
30 -7 0 -20 9 -28 20 -8 11 -21 20 -28 20 -8 0 -27 14 -42 30 -15 17 -34 30
-42 30 -7 0 -20 9 -28 20 -8 11 -21 20 -28 20 -8 0 -27 14 -42 30 -15 17 -34
30 -42 30 -7 0 -20 9 -28 20 -8 11 -21 20 -28 20 -8 0 -27 14 -42 30 -15 17
-34 30 -42 30 -7 0 -20 9 -28 20 -8 11 -21 20 -28 20 -8 0 -27 14 -42 30 -15
17 -33 30 -40 30 -7 0 -25 14 -40 30 -15 17 -34 30 -42 30 -7 0 -20 9 -28 20
-8 11 -21 20 -30 20 -9 0 -22 9 -30 20 -8 11 -21 20 -28 20 -8 0 -27 14 -42
30 -15 17 -34 30 -42 30 -7 0 -20 9 -28 20 -8 11 -21 20 -28 20 -8 0 -27 14
-42 30 -15 17 -34 30 -42 30 -7 0 -20 9 -28 20 -8 11 -21 20 -28 20 -8 0 -27
14 -42 30 -15 17 -34 30 -42 30 -7 0 -20 9 -28 20 -8 11 -21 20 -28 20 -8 0
-27 14 -42 30 -15 17 -34 30 -42 30 -7 0 -20 9 -28 20 -8 11 -21 20 -28 20 -8
0 -27 14 -42 30 -15 17 -34 30 -42 30 -7 0 -20 9 -28 20 -8 11 -21 20 -28 20
-8 0 -27 14 -42 30 -15 17 -34 30 -42 30 -7 0 -20 9 -28 20 -8 11 -21 20 -30
20 -9 0 -22 9 -30 20 -8 11 -21 20 -28 20 -7 0 -31 18 -52 40 -21 22 -45 40
-52 40 -7 0 -20 9 -28 20 -8 11 -21 20 -30 20 -9 0 -22 9 -30 20 -8 11 -21 20
-28 20 -8 0 -27 14 -42 30 -15 17 -34 30 -42 30 -7 0 -20 9 -28 20 -8 11 -21
20 -30 20 -9 0 -22 9 -30 20 -8 11 -21 20 -28 20 -8 0 -27 14 -42 30 -15 17
-33 30 -40 30 -7 0 -25 14 -40 30 -15 17 -34 30 -42 30 -7 0 -20 9 -28 20 -8
11 -21 20 -28 20 -8 0 -27 14 -42 30 -15 17 -34 30 -42 30 -7 0 -20 9 -28 20
-8 11 -21 20 -28 20 -8 0 -27 14 -42 30 -15 17 -34 30 -42 30 -7 0 -20 9 -28
20 -8 11 -21 20 -28 20 -8 0 -27 14 -42 30 -15 17 -34 30 -42 30 -7 0 -20 9
-28 20 -8 11 -21 20 -30 20 -9 0 -22 9 -30 20 -8 11 -21 20 -28 20 -8 0 -27
14 -42 30 -15 17 -33 30 -40 30 -7 0 -25 14 -40 30 -15 17 -34 30 -42 30 -7 0
-20 9 -28 20 -8 11 -21 20 -28 20 -8 0 -27 14 -42 30 -15 17 -34 30 -42 30 -7
0 -20 9 -28 20 -8 11 -21 20 -30 20 -9 0 -22 9 -30 20 -8 11 -21 20 -28 20 -8
0 -27 14 -42 30 -15 17 -33 30 -40 30 -7 0 -25 14 -40 30 -15 17 -34 30 -42
30 -7 0 -20 9 -28 20 -8 11 -21 20 -30 20 -9 0 -22 9 -30 20 -8 11 -21 20 -28
20 -8 0 -27 14 -42 30 -15 17 -33 30 -40 30 -7 0 -25 14 -40 30 -15 17 -34 30
-42 30 -7 0 -20 9 -28 20 -8 11 -21 20 -28 20 -8 0 -27 14 -42 30 -15 17 -34
30 -42 30 -7 0 -20 9 -28 20 -8 11 -21 20 -30 20 -9 0 -22 9 -30 20 -8 11 -21
20 -28 20 -8 0 -27 14 -42 30 -15 17 -33 30 -40 30 -7 0 -25 14 -40 30 -15 17
-34 30 -42 30 -7 0 -20 9 -28 20 -8 11 -21 20 -28 20 -8 0 -27 14 -42 30 -15
17 -34 30 -42 30 -7 0 -20 9 -28 20 -8 11 -21 20 -30 20 -9 0 -22 9 -30 20 -8
11 -21 20 -28 20 -8 0 -27 14 -42 30 -15 17 -33 30 -40 30 -7 0 -25 14 -40 30
-15 17 -34 30 -42 30 -7 0 -20 9 -28 20 -8 11 -21 20 -30 20 -9 0 -22 9 -30
20 -8 11 -21 20 -28 20 -8 0 -27 14 -42 30 -15 17 -33 30 -40 30 -7 0 -25 14
-40 30 -15 17 -34 30 -42 30 -7 0 -20 9 -28 20 -8 11 -21 20 -28 20 -8 0 -27
14 -42 30 -15 17 -34 30 -42 30 -7 0 -20 9 -28 20 -8 11 -21 20 -30 20 -9 0
-22 9 -30 20 -8 11 -21 20 -28 20 -8 0 -27 14 -42 30 -15 17 -34 30 -42 30 -7
0 -20 9 -28 20 -8 11 -21 20 -28 20 -8 0 -27 14 -42 30 -15 17 -33 30 -40 30
-7 0 -25 14 -40 30 -15 17 -34 30 -42 30 -7 0 -20 9 -28 20 -8 11 -21 20 -30
20 -9 0 -22 9 -30 20 -8 11 -21 20 -28 20 -8 0 -27 14 -42 30 -15 17 -33 30
-40 30 -7 0 -25 14 -40 30 -15 17 -34 30 -42 30 -7 0 -20 9 -28 20 -8 11 -21
20 -30 20 -9 0 -22 9 -30 20 -8 11 -21 20 -28 20 -8 0 -27 14 -42 30 -15 17
-33 30 -40 30 -7 0 -25 14 -40 30 -15 17 -34 30 -42 30 -7 0 -20 9 -28 20 -8
11 -21 20 -28 20 -8 0 -27 14 -42 30 -15 17 -34 30 -42 30 -7 0 -20 9 -28 20
-8 11 -18 20 -22 20 -4 0 -8 -4662 -8 -10360z" fill="#12B981"/><path d="M22910 20480 c-129 -131 -241 -239 -248 -239 -7 -1 -125 -113 -262
-251 -137 -137 -255 -250 -261 -250 -16 0 -39 -26 -39 -44 0 -9 -7 -16 -15
-16 -8 0 -119 -103 -245 -230 -126 -126 -237 -230 -245 -230 -8 0 -15 -9 -15
-20 0 -11 -7 -20 -15 -20 -9 0 -105 -90 -215 -200 -110 -110 -206 -200 -215
-200 -8 0 -15 -7 -15 -15 0 -18 -64 -85 -80 -85 -6 0 -123 -112 -260 -250
-137 -137 -254 -250 -260 -250 -6 0 -114 -103 -240 -230 -126 -126 -237 -230
-245 -230 -8 0 -15 -9 -15 -20 0 -13 -7 -20 -20 -20 -13 0 -20 -7 -20 -20 0
-11 -7 -20 -15 -20 -8 0 -123 -108 -255 -240 -132 -132 -244 -240 -250 -240
-6 0 -118 -108 -250 -240 -132 -132 -244 -240 -250 -240 -6 0 -123 -112 -260
-250 -137 -137 -254 -250 -260 -250 -6 0 -132 -121 -280 -270 -148 -148 -274
-270 -280 -270 -6 0 -127 -117 -270 -260 -143 -143 -264 -260 -270 -260 -6 0
-118 -108 -250 -240 -132 -132 -244 -240 -250 -240 -6 0 -114 -103 -240 -230
-126 -126 -237 -230 -245 -230 -8 0 -15 -9 -15 -20 0 -11 -7 -20 -15 -20 -8 0
-132 -117 -275 -260 -143 -143 -264 -260 -270 -260 -6 0 -132 -121 -280 -270
-148 -148 -274 -270 -280 -270 -6 0 -127 -117 -270 -260 -143 -143 -264 -260
-270 -260 -6 0 -118 -108 -250 -240 -132 -132 -244 -240 -250 -240 -6 0 -123
-112 -260 -250 -137 -137 -254 -250 -260 -250 -6 0 -118 -108 -250 -240 -132
-132 -247 -240 -255 -240 -8 0 -15 -9 -15 -20 0 -11 -7 -20 -15 -20 -9 0 -114
-99 -235 -220 -121 -121 -226 -220 -235 -220 -8 0 -15 -9 -15 -20 0 -13 -7
-20 -20 -20 -13 0 -20 -7 -20 -20 0 -11 -7 -20 -15 -20 -8 0 -123 -108 -255
-240 -132 -132 -244 -240 -250 -240 -6 0 -123 -112 -260 -250 -137 -137 -254
-250 -260 -250 -6 0 -132 -121 -280 -270 -148 -148 -274 -270 -280 -270 -6 0
-118 -108 -250 -240 -132 -132 -244 -240 -250 -240 -14 0 -280 -267 -280 -281
0 -15 26 -39 42 -39 8 0 20 -9 28 -20 8 -11 21 -20 30 -20 9 0 22 -9 30 -20 8
-11 21 -20 30 -20 9 0 22 -9 30 -20 8 -11 22 -20 32 -20 10 0 18 -4 18 -10 0
-5 8 -10 18 -10 10 0 24 -9 32 -20 8 -11 21 -20 30 -20 9 0 22 -9 30 -20 8
-11 21 -20 30 -20 9 0 22 -9 30 -20 8 -11 22 -20 32 -20 10 0 18 -4 18 -10 0
-5 8 -10 18 -10 10 0 24 -9 32 -20 8 -11 21 -20 30 -20 9 0 22 -9 30 -20 8
-11 21 -20 30 -20 9 0 22 -9 30 -20 8 -11 22 -20 32 -20 10 0 18 -4 18 -10 0
-5 8 -10 18 -10 10 0 24 -9 32 -20 8 -11 21 -20 30 -20 9 0 22 -9 30 -20 8
-11 22 -20 32 -20 10 0 18 -4 18 -10 0 -5 7 -10 16 -10 9 0 29 -13 44 -30 15
-16 35 -30 44 -30 9 0 16 -4 16 -10 0 -5 8 -10 18 -10 10 0 24 -9 32 -20 8
-11 21 -20 30 -20 9 0 22 -9 30 -20 8 -11 22 -20 32 -20 10 0 18 -4 18 -10 0
-5 8 -10 18 -10 10 0 24 -9 32 -20 8 -11 21 -20 30 -20 9 0 22 -9 30 -20 8
-11 21 -20 30 -20 9 0 22 -9 30 -20 8 -11 22 -20 32 -20 10 0 18 -4 18 -10 0
-5 8 -10 18 -10 10 0 24 -9 32 -20 8 -11 21 -20 30 -20 9 0 22 -9 30 -20 8
-11 21 -20 30 -20 9 0 22 -9 30 -20 8 -11 22 -20 32 -20 10 0 18 -4 18 -10 0
-5 8 -10 18 -10 10 0 24 -9 32 -20 8 -11 21 -20 30 -20 9 0 22 -9 30 -20 8
-11 21 -20 30 -20 9 0 22 -9 30 -20 8 -11 21 -20 30 -20 9 0 22 -9 30 -20 8
-11 22 -20 32 -20 10 0 18 -4 18 -10 0 -5 8 -10 18 -10 10 0 24 -9 32 -20 8
-11 21 -20 30 -20 9 0 22 -9 30 -20 8 -11 22 -20 32 -20 10 0 18 -4 18 -10 0
-5 8 -10 18 -10 10 0 24 -9 32 -20 8 -11 21 -20 30 -20 9 0 22 -9 30 -20 8
-11 21 -20 30 -20 9 0 22 -9 30 -20 8 -11 22 -20 32 -20 10 0 18 -4 18 -10 0
-5 8 -10 18 -10 10 0 24 -9 32 -20 8 -11 21 -20 30 -20 9 0 22 -9 30 -20 8
-11 21 -20 30 -20 9 0 22 -9 30 -20 8 -11 21 -20 30 -20 9 0 22 -9 30 -20 8
-11 22 -20 32 -20 10 0 18 -4 18 -10 0 -5 8 -10 18 -10 10 0 24 -9 32 -20 8
-11 21 -20 30 -20 9 0 22 -9 30 -20 8 -11 21 -20 30 -20 9 0 22 -9 30 -20 8
-11 21 -20 30 -20 9 0 22 -9 30 -20 8 -11 22 -20 32 -20 10 0 18 -4 18 -10 0
-5 8 -10 18 -10 10 0 24 -9 32 -20 8 -11 21 -20 30 -20 9 0 22 -9 30 -20 8
-11 22 -20 32 -20 10 0 18 -4 18 -10 0 -5 8 -10 18 -10 10 0 24 -9 32 -20 8
-11 21 -20 30 -20 9 0 22 -9 30 -20 8 -11 21 -20 30 -20 9 0 22 -9 30 -20 8
-11 22 -20 32 -20 10 0 18 -4 18 -10 0 -5 8 -10 18 -10 10 0 24 -9 32 -20 8
-11 21 -20 30 -20 9 0 22 -9 30 -20 8 -11 21 -20 30 -20 9 0 22 -9 30 -20 8
-11 21 -20 30 -20 9 0 22 -9 30 -20 8 -11 22 -20 32 -20 10 0 18 -4 18 -10 0
-5 8 -10 18 -10 10 0 24 -9 32 -20 8 -11 21 -20 30 -20 9 0 22 -9 30 -20 8
-11 22 -20 32 -20 10 0 18 -4 18 -10 0 -5 8 -10 18 -10 10 0 24 -9 32 -20 8
-11 21 -20 30 -20 9 0 22 -9 30 -20 8 -11 21 -20 30 -20 9 0 22 -9 30 -20 8
-11 22 -20 32 -20 10 0 18 -4 18 -10 0 -5 8 -10 18 -10 10 0 24 -9 32 -20 8
-11 21 -20 30 -20 9 0 22 -9 30 -20 8 -11 21 -20 30 -20 9 0 22 -9 30 -20 8
-11 22 -20 32 -20 10 0 18 -4 18 -10 0 -5 8 -10 18 -10 10 0 24 -9 32 -20 8
-11 21 -20 30 -20 9 0 22 -9 30 -20 8 -11 21 -20 30 -20 9 0 22 -9 30 -20 8
-11 21 -20 30 -20 9 0 22 -9 30 -20 8 -11 22 -20 32 -20 10 0 18 -4 18 -10 0
-5 8 -10 18 -10 10 0 24 -9 32 -20 8 -11 21 -20 30 -20 9 0 22 -9 30 -20 8
-11 21 -20 30 -20 9 0 22 -9 30 -20 8 -11 22 -20 32 -20 10 0 18 -4 18 -10 0
-5 8 -10 18 -10 10 0 24 -9 32 -20 8 -11 21 -20 30 -20 9 0 22 -9 30 -20 8
-11 21 -20 30 -20 9 0 22 -9 30 -20 8 -11 22 -20 32 -20 10 0 18 -4 18 -10 0
-5 8 -10 18 -10 10 0 24 -9 32 -20 8 -11 21 -20 30 -20 9 0 22 -9 30 -20 8
-11 21 -20 30 -20 9 0 22 -9 30 -20 8 -11 22 -20 32 -20 10 0 18 -4 18 -10 0
-5 8 -10 18 -10 10 0 24 -9 32 -20 8 -11 21 -20 30 -20 9 0 22 -9 30 -20 8
-11 21 -20 30 -20 9 0 22 -9 30 -20 8 -11 22 -20 32 -20 10 0 18 -4 18 -10 0
-5 8 -10 18 -10 10 0 24 -9 32 -20 8 -11 21 -20 30 -20 9 0 22 -9 30 -20 8
-11 21 -20 30 -20 9 0 22 -9 30 -20 8 -11 21 -20 30 -20 9 0 22 -9 30 -20 8
-11 22 -20 32 -20 10 0 18 -4 18 -10 0 -5 8 -10 18 -10 10 0 24 -9 32 -20 8
-11 22 -20 32 -20 10 0 18 -4 18 -10 0 -5 8 -10 18 -10 10 0 24 -9 32 -20 8
-11 21 -20 30 -20 9 0 22 -9 30 -20 8 -11 21 -20 30 -20 9 0 22 -9 30 -20 8
-11 21 -20 30 -20 9 0 22 -9 30 -20 8 -11 21 -20 30 -20 9 0 22 -9 30 -20 8
-11 21 -20 30 -20 9 0 22 -9 30 -20 8 -11 22 -20 32 -20 10 0 18 -4 18 -10 0
-5 8 -10 18 -10 10 0 24 -9 32 -20 8 -11 22 -20 32 -20 10 0 18 -4 18 -10 0
-5 8 -10 18 -10 10 0 24 -9 32 -20 8 -11 21 -20 30 -20 9 0 22 -9 30 -20 8
-11 21 -20 30 -20 9 0 22 -9 30 -20 8 -11 21 -20 30 -20 9 0 22 -9 30 -20 8
-11 22 -20 32 -20 10 0 18 -4 18 -10 0 -5 8 -10 18 -10 10 0 24 -9 32 -20 8
-11 21 -20 30 -20 9 0 22 -9 30 -20 8 -11 21 -20 30 -20 9 0 22 -9 30 -20 8
-11 22 -20 32 -20 10 0 18 -4 18 -10 0 -5 8 -10 18 -10 10 0 24 -9 32 -20 8
-11 21 -20 30 -20 9 0 22 -9 30 -20 8 -11 21 -20 30 -20 9 0 22 -9 30 -20 8
-11 22 -20 32 -20 10 0 18 -4 18 -10 0 -5 8 -10 18 -10 10 0 24 -9 32 -20 8
-11 21 -20 30 -20 9 0 22 -9 30 -20 8 -11 21 -20 30 -20 9 0 22 -9 30 -20 8
-11 22 -20 32 -20 10 0 18 -4 18 -10 0 -5 8 -10 18 -10 10 0 24 -9 32 -20 8
-11 21 -20 30 -20 9 0 22 -9 30 -20 8 -11 21 -20 30 -20 9 0 22 -9 30 -20 8
-11 22 -20 32 -20 10 0 18 -4 18 -10 0 -5 8 -10 18 -10 10 0 24 -9 32 -20 8
-11 21 -20 30 -20 9 0 22 -9 30 -20 8 -11 22 -20 32 -20 10 0 18 -4 18 -10 0
-5 8 -10 18 -10 10 0 24 -9 32 -20 8 -11 21 -20 30 -20 9 0 22 -9 30 -20 8
-11 21 -20 30 -20 9 0 22 -9 30 -20 8 -11 21 -20 30 -20 9 0 22 -9 30 -20 8
-11 21 -20 30 -20 9 0 22 -9 30 -20 8 -11 22 -20 32 -20 10 0 18 -4 18 -10 0
-5 8 -10 18 -10 10 0 24 -9 32 -20 8 -11 21 -20 30 -20 9 0 22 -9 30 -20 8
-11 22 -20 32 -20 10 0 18 -4 18 -10 0 -5 8 -10 18 -10 10 0 24 -9 32 -20 8
-11 21 -20 30 -20 9 0 22 -9 30 -20 8 -11 21 -20 30 -20 9 0 22 -9 30 -20 8
-11 22 -20 32 -20 10 0 18 -4 18 -10 0 -5 8 -10 18 -10 10 0 24 -9 32 -20 8
-11 21 -20 30 -20 9 0 22 -9 30 -20 8 -11 21 -20 30 -20 9 0 22 -9 30 -20 8
-11 21 -20 30 -20 9 0 22 -9 30 -20 8 -11 22 -20 32 -20 10 0 18 -4 18 -10 0
-5 8 -10 18 -10 10 0 24 -9 32 -20 8 -11 21 -20 30 -20 9 0 22 -9 30 -20 8
-11 22 -20 32 -20 10 0 18 -4 18 -10 0 -5 8 -10 18 -10 10 0 24 -9 32 -20 8
-11 21 -20 30 -20 9 0 22 -9 30 -20 8 -11 21 -20 30 -20 9 0 22 -9 30 -20 8
-11 22 -20 32 -20 10 0 18 -4 18 -10 0 -5 8 -10 18 -10 10 0 24 -9 32 -20 8
-11 21 -20 30 -20 9 0 22 -9 30 -20 8 -11 21 -20 30 -20 9 0 22 -9 30 -20 8
-11 21 -20 30 -20 9 0 22 -9 30 -20 8 -11 22 -20 32 -20 10 0 18 -4 18 -10 0
-5 8 -10 18 -10 10 0 24 -9 32 -20 8 -11 21 -20 30 -20 9 0 22 -9 30 -20 8
-11 21 -20 30 -20 9 0 22 -9 30 -20 8 -11 21 -20 30 -20 9 0 22 -9 30 -20 8
-11 22 -20 32 -20 10 0 18 -4 18 -10 0 -5 8 -10 18 -10 10 0 24 -9 32 -20 8
-11 21 -20 30 -20 9 0 22 -9 30 -20 8 -11 21 -20 30 -20 9 0 22 -9 30 -20 8
-11 22 -20 32 -20 10 0 18 -4 18 -10 0 -5 8 -10 18 -10 10 0 24 -9 32 -20 8
-11 21 -20 30 -20 9 0 22 -9 30 -20 8 -11 22 -20 32 -20 10 0 18 -4 18 -10 0
-5 8 -10 18 -10 10 0 24 -9 32 -20 8 -11 21 -20 30 -20 9 0 22 -9 30 -20 8
-11 21 -20 30 -20 9 0 22 -9 30 -20 8 -11 21 -20 30 -20 9 0 22 -9 30 -20 8
-11 22 -20 32 -20 10 0 18 -4 18 -10 0 -5 8 -10 18 -10 10 0 24 -9 32 -20 8
-11 21 -20 30 -20 9 0 22 -9 30 -20 8 -11 22 -20 32 -20 10 0 18 -4 18 -10 0
-5 8 -10 18 -10 10 0 24 -9 32 -20 8 -11 21 -20 30 -20 9 0 22 -9 30 -20 8
-11 21 -20 30 -20 9 0 22 -9 30 -20 8 -11 21 -20 30 -20 9 0 22 -9 30 -20 8
-11 22 -20 32 -20 10 0 18 -4 18 -10 0 -5 8 -10 18 -10 10 0 24 -9 32 -20 8
-11 21 -20 30 -20 9 0 22 -9 30 -20 8 -11 22 -20 32 -20 10 0 18 -4 18 -10 0
-5 8 -10 18 -10 10 0 24 -9 32 -20 8 -11 21 -20 30 -20 9 0 22 -9 30 -20 8
-11 21 -20 30 -20 9 0 22 -9 30 -20 8 -11 22 -20 32 -20 10 0 18 -4 18 -10 0
-5 8 -10 18 -10 10 0 24 -9 32 -20 8 -11 21 -20 30 -20 9 0 22 -9 30 -20 8
-11 21 -20 30 -20 9 0 22 -9 30 -20 8 -11 21 -20 30 -20 9 0 22 -9 30 -20 8
-11 21 -20 30 -20 9 0 22 -9 30 -20 8 -11 22 -20 32 -20 10 0 18 -4 18 -10 0
-5 8 -10 18 -10 10 0 24 -9 32 -20 8 -11 21 -20 30 -20 9 0 22 -9 30 -20 8
-11 22 -20 32 -20 10 0 18 -4 18 -10 0 -5 8 -10 18 -10 10 0 24 -9 32 -20 8
-11 21 -20 30 -20 9 0 22 -9 30 -20 8 -11 22 -20 32 -20 10 0 18 -4 18 -10 0
-5 8 -10 18 -10 10 0 24 -9 32 -20 8 -11 21 -20 30 -20 9 0 22 -9 30 -20 8
-11 21 -20 30 -20 9 0 22 -9 30 -20 8 -11 21 -20 30 -20 9 0 22 -9 30 -20 8
-11 22 -20 32 -20 10 0 18 -4 18 -10 0 -5 8 -10 18 -10 10 0 24 -9 32 -20 8
-11 21 -20 30 -20 9 0 22 -9 30 -20 8 -11 21 -20 30 -20 9 0 22 -9 30 -20 8
-11 22 -20 32 -20 10 0 18 -4 18 -10 0 -5 8 -10 18 -10 10 0 24 -9 32 -20 8
-11 21 -20 30 -20 9 0 22 -9 30 -20 8 -11 21 -20 30 -20 9 0 22 -9 30 -20 8
-11 21 -20 30 -20 9 0 22 -9 30 -20 8 -11 22 -20 32 -20 10 0 18 -4 18 -10 0
-5 8 -10 18 -10 10 0 24 -9 32 -20 8 -11 21 -20 30 -20 9 0 22 -9 30 -20 8
-11 21 -20 30 -20 9 0 22 -9 30 -20 8 -11 22 -20 32 -20 10 0 18 -4 18 -10 0
-5 8 -10 18 -10 10 0 24 -9 32 -20 8 -11 21 -20 30 -20 9 0 22 -9 30 -20 8
-11 21 -20 30 -20 9 0 22 -9 30 -20 8 -11 22 -20 32 -20 10 0 18 -4 18 -10 0
-5 8 -10 18 -10 10 0 24 -9 32 -20 8 -11 21 -20 30 -20 9 0 22 -9 30 -20 8
-11 22 -20 32 -20 10 0 18 -4 18 -10 0 -5 8 -10 18 -10 10 0 24 -9 32 -20 8
-11 18 -20 22 -20 4 0 8 4662 8 10360 0 5698 -3 10360 -7 10359 -5 0 -114
-108 -243 -239z" fill="#12B981"/></g></svg>
