<svg xmlns="http://www.w3.org/2000/svg" viewBox="-49.6 -157.6 4853.2 2057.7" role="img" aria-label="Primo Strategic Communication"><title>Primo — Strategic Communication</title><g transform="translate(0.000000,1176.000000) scale(0.100000,-0.100000)"><path d="M40170 10935 c-10 -12 -38 -15 -135 -15 -97 0 -125 -3 -135 -15 -9
-11 -35 -15 -105 -15 -70 0 -96 -4 -105 -15 -9 -10 -32 -15 -75 -15 -43 0 -66
-5 -75 -15 -9 -10 -32 -15 -75 -15 -43 0 -66 -5 -75 -15 -8 -9 -30 -15 -60
-15 -30 0 -52 -6 -60 -15 -7 -8 -27 -15 -45 -15 -18 0 -38 -7 -45 -15 -8 -9
-30 -15 -60 -15 -30 0 -52 -6 -60 -15 -7 -8 -27 -15 -45 -15 -18 0 -38 -7 -45
-15 -7 -8 -27 -15 -45 -15 -18 0 -38 -7 -45 -15 -7 -8 -27 -15 -45 -15 -18 0
-38 -7 -45 -15 -7 -8 -27 -15 -45 -15 -18 0 -38 -7 -45 -15 -7 -8 -27 -15 -45
-15 -18 0 -38 -7 -45 -15 -7 -8 -20 -15 -30 -15 -10 0 -23 -7 -30 -15 -7 -8
-20 -15 -30 -15 -10 0 -23 -7 -30 -15 -7 -8 -27 -15 -44 -15 -23 0 -41 -9 -61
-30 -20 -21 -38 -30 -61 -30 -17 0 -37 -7 -44 -15 -7 -8 -20 -15 -30 -15 -10
0 -23 -7 -30 -15 -7 -8 -20 -15 -30 -15 -10 0 -23 -7 -30 -15 -7 -8 -20 -15
-30 -15 -10 0 -23 -7 -30 -15 -7 -8 -20 -15 -29 -15 -10 0 -30 -13 -46 -30
-16 -16 -36 -30 -46 -30 -9 0 -22 -7 -29 -15 -7 -8 -20 -15 -29 -15 -10 0 -30
-13 -46 -30 -16 -16 -36 -30 -45 -30 -9 0 -29 -13 -45 -30 -16 -16 -36 -30
-46 -30 -9 0 -22 -7 -29 -15 -7 -8 -20 -15 -29 -15 -9 0 -37 -20 -61 -45 -24
-25 -51 -45 -60 -45 -9 0 -29 -13 -45 -30 -16 -16 -36 -30 -45 -30 -8 0 -42
-27 -75 -60 -33 -33 -66 -60 -75 -60 -8 0 -83 -67 -165 -150 -105 -105 -157
-150 -172 -150 -17 0 -23 -6 -23 -23 0 -15 -41 -63 -135 -157 -74 -74 -135
-142 -135 -150 0 -9 -27 -42 -60 -75 -33 -33 -60 -66 -60 -75 0 -9 -20 -36
-45 -60 -25 -24 -45 -51 -45 -60 0 -9 -13 -29 -30 -45 -16 -16 -30 -36 -30
-45 0 -9 -13 -29 -30 -45 -16 -16 -30 -36 -30 -45 0 -9 -13 -29 -30 -45 -16
-16 -30 -39 -30 -51 0 -12 -7 -24 -15 -28 -8 -3 -15 -16 -15 -30 0 -13 -7 -26
-15 -30 -8 -3 -15 -14 -15 -24 0 -10 -13 -31 -30 -47 -16 -16 -30 -39 -30 -51
0 -12 -7 -24 -15 -28 -8 -3 -15 -16 -15 -30 0 -13 -7 -26 -15 -30 -8 -3 -15
-16 -15 -30 0 -13 -7 -26 -15 -30 -8 -3 -15 -16 -15 -30 0 -13 -7 -26 -15 -30
-8 -3 -15 -16 -15 -30 0 -13 -7 -26 -15 -30 -8 -3 -15 -16 -15 -30 0 -13 -7
-26 -15 -30 -9 -3 -15 -18 -15 -39 0 -19 -7 -40 -15 -47 -8 -7 -15 -27 -15
-45 0 -18 -7 -38 -15 -45 -8 -7 -15 -23 -15 -35 0 -13 -7 -25 -15 -29 -9 -3
-15 -18 -15 -39 0 -19 -7 -40 -15 -47 -8 -7 -15 -27 -15 -45 0 -18 -7 -38 -15
-45 -8 -7 -15 -27 -15 -45 0 -18 -7 -38 -15 -45 -8 -7 -15 -27 -15 -45 0 -18
-7 -38 -15 -45 -9 -8 -15 -30 -15 -60 0 -30 -6 -52 -15 -60 -9 -8 -15 -30 -15
-60 0 -30 -6 -52 -15 -60 -10 -9 -15 -32 -15 -75 0 -43 -5 -66 -15 -75 -11 -9
-15 -35 -15 -105 0 -70 -4 -96 -15 -105 -12 -10 -15 -40 -15 -150 0 -110 -3
-140 -15 -150 -13 -11 -15 -72 -15 -435 0 -363 2 -424 15 -435 12 -10 15 -38
15 -135 0 -97 3 -125 15 -135 11 -9 15 -35 15 -105 0 -70 4 -96 15 -105 10 -9
15 -32 15 -75 0 -43 5 -66 15 -75 9 -8 15 -30 15 -60 0 -30 6 -52 15 -60 9 -8
15 -30 15 -60 0 -30 6 -52 15 -60 8 -7 15 -27 15 -45 0 -18 7 -38 15 -45 8 -7
15 -27 15 -45 0 -18 7 -38 15 -45 8 -7 15 -27 15 -45 0 -18 7 -38 15 -45 8 -7
15 -28 15 -47 0 -21 6 -36 15 -39 8 -4 15 -16 15 -29 0 -12 7 -28 15 -35 8 -7
15 -28 15 -47 0 -21 6 -36 15 -39 8 -4 15 -17 15 -30 0 -14 7 -27 15 -30 8 -4
15 -16 15 -29 0 -12 7 -28 15 -35 8 -7 15 -28 15 -47 0 -21 6 -36 15 -39 8 -4
15 -17 15 -30 0 -14 7 -27 15 -30 8 -4 15 -17 15 -30 0 -14 7 -27 15 -30 8 -4
15 -16 15 -28 0 -12 14 -35 30 -51 17 -16 30 -37 30 -47 0 -10 7 -21 15 -24 8
-4 15 -17 15 -30 0 -14 7 -27 15 -30 8 -4 15 -16 15 -28 0 -12 14 -35 30 -51
17 -16 30 -37 30 -47 0 -10 7 -21 15 -24 8 -4 15 -16 15 -28 0 -12 14 -35 30
-51 17 -16 30 -36 30 -45 0 -9 20 -36 45 -60 25 -24 45 -51 45 -60 0 -9 20
-36 45 -60 25 -24 45 -51 45 -60 0 -9 20 -36 45 -60 25 -24 45 -51 45 -60 0
-20 580 -600 600 -600 9 0 42 -27 75 -60 33 -33 66 -60 75 -60 9 0 36 -20 60
-45 24 -25 51 -45 60 -45 9 0 29 -14 45 -30 16 -17 36 -30 45 -30 9 0 29 -14
45 -30 16 -17 36 -30 45 -30 9 0 29 -14 45 -30 16 -17 36 -30 46 -30 9 0 22
-7 29 -15 7 -8 20 -15 29 -15 10 0 30 -14 46 -30 16 -17 36 -30 46 -30 9 0 22
-7 29 -15 7 -8 20 -15 30 -15 10 0 23 -7 30 -15 7 -8 20 -15 29 -15 10 0 30
-14 46 -30 16 -17 36 -30 46 -30 9 0 22 -7 29 -15 7 -8 20 -15 30 -15 10 0 23
-7 30 -15 7 -8 27 -15 45 -15 18 0 38 -7 45 -15 7 -8 20 -15 30 -15 10 0 23
-7 30 -15 7 -8 20 -15 30 -15 10 0 23 -7 30 -15 7 -8 27 -15 45 -15 18 0 38
-7 45 -15 7 -8 20 -15 30 -15 10 0 23 -7 30 -15 7 -8 20 -15 30 -15 10 0 23
-7 30 -15 7 -8 27 -15 45 -15 18 0 38 -7 45 -15 7 -8 27 -15 45 -15 18 0 38
-7 45 -15 7 -8 27 -15 45 -15 18 0 38 -7 45 -15 7 -8 27 -15 45 -15 18 0 38
-7 45 -15 8 -9 30 -15 60 -15 30 0 52 -6 60 -15 8 -9 30 -15 60 -15 30 0 52
-6 60 -15 8 -9 30 -15 60 -15 30 0 52 -6 60 -15 9 -10 32 -15 75 -15 43 0 66
-5 75 -15 9 -10 32 -15 75 -15 43 0 66 -5 75 -15 9 -11 35 -15 105 -15 70 0
96 -4 105 -15 10 -12 38 -15 135 -15 97 0 125 -3 135 -15 11 -13 83 -15 540
-15 457 0 529 2 540 15 10 12 38 15 135 15 97 0 125 3 135 15 9 11 35 15 105
15 70 0 96 4 105 15 9 10 32 15 75 15 43 0 66 5 75 15 9 10 32 15 75 15 43 0
66 5 75 15 8 9 30 15 60 15 30 0 52 6 60 15 9 10 32 15 75 15 43 0 66 5 75 15
7 8 27 15 45 15 18 0 38 7 45 15 7 8 27 15 45 15 18 0 38 7 45 15 7 8 27 15
45 15 18 0 38 7 45 15 7 8 27 15 45 15 18 0 38 7 45 15 7 8 27 15 45 15 18 0
38 7 45 15 7 8 20 15 30 15 10 0 23 7 30 15 7 8 20 15 30 15 10 0 23 7 30 15
7 8 27 15 45 15 18 0 38 7 45 15 7 8 20 15 30 15 10 0 23 7 30 15 7 8 20 15
30 15 10 0 23 7 30 15 7 8 27 15 45 15 18 0 38 7 45 15 7 8 20 15 30 15 10 0
23 7 30 15 7 8 20 15 30 15 10 0 23 7 30 15 7 8 20 15 29 15 10 0 30 13 46 30
16 17 36 30 46 30 9 0 22 7 29 15 7 8 20 15 29 15 10 0 30 13 46 30 16 16 36
30 46 30 9 0 22 7 29 15 7 8 20 15 29 15 10 0 30 13 46 30 16 16 36 30 45 30
9 0 29 14 45 30 16 17 36 30 45 30 9 0 29 13 45 30 16 16 36 30 45 30 9 0 36
20 60 45 24 25 51 45 60 45 8 0 49 34 90 75 41 41 81 75 90 75 20 0 510 490
510 510 0 9 34 49 75 90 41 41 75 82 75 90 0 9 20 36 45 60 25 24 45 51 45 60
0 9 14 29 30 45 17 16 30 36 30 45 0 9 14 29 30 45 17 16 30 36 30 45 0 9 14
29 30 45 17 16 30 39 30 51 0 12 7 24 15 28 8 3 15 14 15 24 0 10 14 31 30 47
17 16 30 39 30 51 0 12 7 24 15 28 8 3 15 16 15 30 0 13 7 26 15 30 8 3 15 16
15 30 0 13 7 26 15 30 8 3 15 16 15 30 0 13 7 26 15 30 8 3 15 16 15 30 0 13
7 26 15 30 8 3 15 16 15 30 0 13 7 26 15 30 8 3 15 16 15 30 0 13 7 26 15 30
8 3 15 16 15 30 0 13 7 26 15 30 9 3 15 18 15 39 0 19 7 40 15 47 8 7 15 23
15 35 0 13 7 25 15 29 9 3 15 18 15 39 0 19 7 40 15 47 8 7 15 27 15 45 0 18
7 38 15 45 8 7 15 27 15 45 0 18 7 38 15 45 8 7 15 27 15 45 0 18 7 38 15 45
9 8 15 30 15 60 0 30 6 52 15 60 8 7 15 27 15 45 0 18 7 38 15 45 10 9 15 32
15 75 0 43 5 66 15 75 9 8 15 30 15 60 0 30 6 52 15 60 11 9 15 33 15 90 0 57
4 81 15 90 12 10 15 40 15 150 0 110 3 140 15 150 13 11 15 70 15 420 0 350
-2 409 -15 420 -12 10 -15 38 -15 135 0 97 -3 125 -15 135 -11 9 -15 33 -15
90 0 57 -4 81 -15 90 -10 9 -15 32 -15 75 0 43 -5 66 -15 75 -10 9 -15 32 -15
75 0 43 -5 66 -15 75 -8 7 -15 27 -15 45 0 18 -7 38 -15 45 -9 8 -15 30 -15
60 0 30 -6 52 -15 60 -8 7 -15 27 -15 45 0 18 -7 38 -15 45 -10 8 -15 30 -15
62 0 34 -4 50 -15 54 -8 4 -15 16 -15 29 0 12 -7 28 -15 35 -8 7 -15 28 -15
47 0 21 -6 36 -15 39 -8 4 -15 16 -15 29 0 12 -7 28 -15 35 -8 7 -15 28 -15
47 0 21 -6 36 -15 39 -8 4 -15 17 -15 30 0 14 -7 27 -15 30 -8 4 -15 17 -15
30 0 14 -7 27 -15 30 -8 4 -15 17 -15 30 0 14 -7 27 -15 30 -8 4 -15 17 -15
30 0 14 -7 27 -15 30 -8 4 -15 17 -15 30 0 14 -7 27 -15 30 -8 4 -15 17 -15
30 0 14 -7 27 -15 30 -8 4 -15 17 -15 30 0 14 -7 27 -15 30 -8 4 -15 16 -15
28 0 12 -13 35 -30 51 -16 16 -30 36 -30 45 0 9 -13 29 -30 45 -16 16 -30 36
-30 45 0 9 -13 29 -30 45 -16 16 -30 36 -30 45 0 9 -13 29 -30 45 -16 16 -30
36 -30 45 0 9 -13 29 -30 45 -16 16 -30 36 -30 45 0 9 -20 36 -45 60 -25 24
-45 51 -45 60 0 8 -34 49 -75 90 -41 41 -75 81 -75 90 0 20 -460 480 -480 480
-9 0 -49 34 -90 75 -41 41 -82 75 -90 75 -9 0 -36 20 -60 45 -24 25 -51 45
-60 45 -9 0 -29 14 -45 30 -16 17 -36 30 -45 30 -9 0 -29 14 -45 30 -16 17
-36 30 -45 30 -9 0 -29 14 -45 30 -16 17 -36 30 -45 30 -9 0 -29 14 -45 30
-16 17 -36 30 -46 30 -9 0 -22 7 -29 15 -7 8 -20 15 -29 15 -10 0 -30 14 -46
30 -16 17 -36 30 -46 30 -9 0 -22 7 -29 15 -7 8 -20 15 -30 15 -10 0 -23 7
-30 15 -7 8 -20 15 -30 15 -10 0 -23 7 -30 15 -7 8 -20 15 -30 15 -10 0 -23 7
-30 15 -7 8 -20 15 -30 15 -10 0 -23 7 -30 15 -7 8 -20 15 -30 15 -10 0 -23 7
-30 15 -7 8 -27 15 -45 15 -18 0 -38 7 -45 15 -7 8 -20 15 -30 15 -10 0 -23 7
-30 15 -7 8 -27 15 -45 15 -18 0 -38 7 -45 15 -7 8 -20 15 -30 15 -10 0 -23 7
-30 15 -7 8 -27 15 -45 15 -18 0 -38 7 -45 15 -7 8 -27 15 -45 15 -18 0 -38 7
-45 15 -7 8 -27 15 -45 15 -18 0 -38 7 -45 15 -7 8 -27 15 -45 15 -18 0 -38 7
-45 15 -8 9 -30 15 -60 15 -30 0 -52 6 -60 15 -7 8 -27 15 -45 15 -18 0 -38 7
-45 15 -8 9 -30 15 -60 15 -30 0 -52 6 -60 15 -9 10 -32 15 -75 15 -43 0 -66
5 -75 15 -9 10 -32 15 -75 15 -43 0 -66 5 -75 15 -9 11 -35 15 -105 15 -70 0
-96 4 -105 15 -10 12 -37 15 -120 15 -83 0 -110 3 -120 15 -11 13 -88 15 -585
15 -497 0 -574 -2 -585 -15z m840 -2130 c9 -11 35 -15 105 -15 70 0 96 -4 105
-15 9 -10 32 -15 75 -15 43 0 66 -5 75 -15 8 -9 30 -15 60 -15 30 0 52 -6 60
-15 7 -8 27 -15 45 -15 18 0 38 -7 45 -15 7 -8 27 -15 45 -15 18 0 38 -7 45
-15 7 -8 20 -15 30 -15 10 0 23 -7 30 -15 7 -8 20 -15 30 -15 10 0 23 -7 30
-15 7 -8 20 -15 30 -15 10 0 23 -7 30 -15 7 -8 20 -15 30 -15 10 0 23 -7 30
-15 7 -8 20 -15 30 -15 10 0 23 -7 30 -15 7 -8 20 -15 30 -15 10 0 23 -7 30
-15 7 -8 20 -15 29 -15 10 0 30 -13 46 -30 16 -16 36 -30 45 -30 9 0 36 -20
60 -45 24 -25 51 -45 59 -45 21 0 421 -400 421 -421 0 -8 14 -28 30 -44 17
-16 30 -36 30 -45 0 -9 14 -29 30 -45 17 -16 30 -36 30 -45 0 -9 14 -29 30
-45 17 -16 30 -37 30 -47 0 -10 7 -21 15 -24 8 -4 15 -17 15 -30 0 -14 7 -27
15 -30 8 -4 15 -17 15 -30 0 -14 7 -27 15 -30 8 -4 15 -17 15 -30 0 -14 7 -27
15 -30 8 -4 15 -16 15 -29 0 -12 7 -28 15 -35 8 -7 15 -28 15 -47 0 -21 6 -36
15 -39 8 -4 15 -16 15 -29 0 -12 7 -28 15 -35 8 -7 15 -27 15 -45 0 -18 7 -38
15 -45 9 -8 15 -30 15 -60 0 -30 6 -52 15 -60 9 -8 15 -30 15 -60 0 -30 6 -52
15 -60 10 -9 15 -32 15 -75 0 -43 5 -66 15 -75 12 -10 15 -40 15 -150 0 -110
3 -140 15 -150 13 -10 15 -50 15 -240 0 -190 -2 -230 -15 -240 -12 -10 -15
-38 -15 -135 0 -97 -3 -125 -15 -135 -11 -9 -15 -33 -15 -90 0 -57 -4 -81 -15
-90 -9 -8 -15 -30 -15 -60 0 -30 -6 -52 -15 -60 -8 -7 -15 -27 -15 -45 0 -18
-7 -38 -15 -45 -8 -7 -15 -27 -15 -45 0 -18 -7 -38 -15 -45 -8 -7 -15 -27 -15
-45 0 -18 -7 -38 -15 -45 -8 -7 -15 -23 -15 -35 0 -13 -7 -25 -15 -29 -8 -3
-15 -16 -15 -30 0 -13 -7 -26 -15 -30 -9 -3 -15 -18 -15 -39 0 -19 -7 -40 -15
-47 -8 -7 -15 -23 -15 -35 0 -13 -7 -25 -15 -29 -8 -3 -15 -14 -15 -24 0 -10
-13 -31 -30 -47 -16 -16 -30 -39 -30 -51 0 -12 -7 -24 -15 -28 -8 -3 -15 -14
-15 -24 0 -10 -13 -31 -30 -47 -16 -16 -30 -36 -30 -45 0 -9 -20 -36 -45 -60
-25 -24 -45 -51 -45 -59 0 -21 -370 -391 -390 -391 -9 0 -36 -20 -60 -45 -24
-25 -51 -45 -60 -45 -9 0 -29 -13 -45 -30 -16 -17 -36 -30 -46 -30 -9 0 -22
-7 -29 -15 -7 -8 -20 -15 -30 -15 -10 0 -23 -7 -30 -15 -7 -8 -20 -15 -29 -15
-10 0 -30 -14 -46 -30 -20 -21 -38 -30 -61 -30 -17 0 -37 -7 -44 -15 -7 -8
-20 -15 -30 -15 -10 0 -23 -7 -30 -15 -7 -8 -27 -15 -45 -15 -18 0 -38 -7 -45
-15 -7 -8 -20 -15 -30 -15 -10 0 -23 -7 -30 -15 -8 -9 -30 -15 -60 -15 -30 0
-52 -6 -60 -15 -8 -9 -30 -15 -60 -15 -30 0 -52 -6 -60 -15 -9 -10 -32 -15
-75 -15 -43 0 -66 -5 -75 -15 -10 -12 -37 -15 -120 -15 -83 0 -110 -3 -120
-15 -18 -22 -402 -22 -420 0 -10 12 -37 15 -120 15 -83 0 -110 3 -120 15 -9
10 -32 15 -75 15 -43 0 -66 5 -75 15 -8 9 -30 15 -60 15 -30 0 -52 6 -60 15
-7 8 -27 15 -45 15 -18 0 -38 7 -45 15 -7 8 -27 15 -45 15 -18 0 -38 7 -45 15
-7 8 -27 15 -45 15 -18 0 -38 7 -45 15 -7 8 -20 15 -30 15 -10 0 -23 7 -30 15
-7 8 -27 15 -45 15 -18 0 -38 7 -45 15 -7 8 -20 15 -29 15 -10 0 -30 14 -46
30 -16 17 -36 30 -46 30 -9 0 -22 7 -29 15 -7 8 -20 15 -29 15 -10 0 -30 14
-46 30 -16 17 -36 30 -45 30 -9 0 -29 13 -45 30 -16 16 -36 30 -44 30 -21 0
-451 430 -451 451 0 8 -13 28 -30 44 -16 16 -30 36 -30 45 0 9 -13 29 -30 45
-16 16 -30 36 -30 45 0 9 -13 29 -30 45 -16 16 -30 37 -30 47 0 10 -7 21 -15
24 -8 4 -15 17 -15 30 0 14 -7 27 -15 30 -8 4 -15 17 -15 30 0 14 -7 27 -15
30 -8 4 -15 17 -15 30 0 14 -7 27 -15 30 -8 4 -15 16 -15 29 0 12 -7 28 -15
35 -8 7 -15 28 -15 47 0 21 -6 36 -15 39 -8 4 -15 16 -15 29 0 12 -7 28 -15
35 -9 8 -15 30 -15 60 0 30 -6 52 -15 60 -8 7 -15 27 -15 45 0 18 -7 38 -15
45 -9 8 -15 30 -15 60 0 30 -6 52 -15 60 -10 9 -15 32 -15 75 0 43 -5 66 -15
75 -11 9 -15 35 -15 105 0 70 -4 96 -15 105 -13 11 -15 60 -15 330 0 270 2
319 15 330 12 10 15 37 15 120 0 83 3 110 15 120 10 9 15 32 15 75 0 43 5 66
15 75 9 8 15 30 15 60 0 30 6 52 15 60 8 7 15 27 15 45 0 18 7 38 15 45 8 7
15 27 15 45 0 18 7 38 15 45 8 7 15 27 15 45 0 18 7 38 15 45 8 7 15 23 15 35
0 13 7 25 15 29 8 3 15 16 15 30 0 13 7 26 15 30 8 3 15 16 15 30 0 13 7 26
15 30 8 3 15 16 15 30 0 13 7 26 15 30 8 3 15 16 15 30 0 13 7 26 15 30 8 3
15 14 15 24 0 10 14 31 30 47 17 16 30 39 30 51 0 12 7 24 15 28 8 3 15 14 15
24 0 10 14 31 30 47 17 16 30 36 30 45 0 8 41 56 90 105 50 49 90 96 90 104 0
20 100 121 120 121 8 0 49 34 90 75 41 41 82 75 90 75 9 0 29 14 45 30 16 17
36 30 45 30 9 0 29 14 45 30 16 17 36 30 45 30 9 0 29 14 45 30 16 17 36 30
46 30 9 0 22 7 29 15 7 8 20 15 30 15 10 0 23 7 30 15 7 8 27 15 45 15 18 0
38 7 45 15 7 8 20 15 30 15 10 0 23 7 30 15 7 8 20 15 30 15 10 0 23 7 30 15
7 8 27 15 45 15 18 0 38 7 45 15 7 8 27 15 45 15 18 0 38 7 45 15 7 8 27 15
45 15 18 0 38 7 45 15 9 11 33 15 90 15 57 0 81 4 90 15 9 11 35 15 105 15 70
0 96 4 105 15 10 13 53 15 270 15 217 0 260 -2 270 -15z" fill="#1A1B2E"/><path d="M1715 10758 c-3 -7 -4 -2072 -3 -4588 l3 -4575 1300 0 1300 0 5 1195
5 1195 981 3 c857 2 983 4 994 17 10 12 42 15 165 15 123 0 155 3 165 15 10
12 37 15 120 15 83 0 110 3 120 15 9 11 35 15 105 15 70 0 96 4 105 15 9 10
32 15 75 15 43 0 66 5 75 15 8 9 30 15 60 15 30 0 52 6 60 15 8 9 30 15 60 15
30 0 52 6 60 15 8 9 30 15 60 15 30 0 52 6 60 15 7 8 27 15 45 15 18 0 38 7
45 15 7 8 20 15 30 15 10 0 23 7 30 15 7 8 27 15 45 15 18 0 38 7 45 15 7 8
27 15 45 15 18 0 38 7 45 15 7 8 20 15 30 15 10 0 23 7 30 15 7 8 27 15 45 15
18 0 38 7 45 15 7 8 20 15 30 15 10 0 23 7 30 15 7 8 20 15 30 15 10 0 23 7
30 15 7 8 20 15 30 15 10 0 23 7 30 15 7 8 20 15 30 15 10 0 23 7 30 15 7 8
20 15 29 15 10 0 30 13 46 30 16 17 36 30 46 30 9 0 22 7 29 15 7 8 20 15 29
15 10 0 30 14 46 30 16 16 36 30 45 30 9 0 29 13 45 30 16 16 36 30 45 30 9 0
29 14 45 30 16 17 36 30 45 30 8 0 42 27 75 60 33 33 66 60 75 60 20 0 330
310 330 330 0 9 34 49 75 90 41 41 75 82 75 90 0 9 20 36 45 60 26 26 45 53
45 66 0 12 7 24 15 28 8 3 15 14 15 24 0 10 14 31 30 47 17 16 30 36 30 45 0
9 14 29 30 45 21 20 30 38 30 61 0 17 7 37 15 44 8 7 15 20 15 29 0 10 14 30
30 46 21 20 30 38 30 61 0 17 7 37 15 44 8 7 15 23 15 35 0 13 7 25 15 29 9 3
15 18 15 39 0 19 7 40 15 47 8 7 15 27 15 45 0 18 7 38 15 45 8 7 15 27 15 45
0 18 7 38 15 45 9 8 15 30 15 60 0 30 6 52 15 60 9 8 15 30 15 60 0 30 6 52
15 60 10 9 15 32 15 75 0 43 5 66 15 75 11 9 15 35 15 105 0 70 4 96 15 105
13 11 15 68 15 405 0 337 -2 394 -15 405 -12 10 -15 37 -15 120 0 83 -3 110
-15 120 -10 9 -15 32 -15 75 0 43 -5 66 -15 75 -9 8 -15 30 -15 60 0 30 -6 52
-15 60 -9 8 -15 30 -15 60 0 30 -6 52 -15 60 -8 7 -15 27 -15 45 0 18 -7 38
-15 45 -8 7 -15 27 -15 45 0 18 -7 38 -15 45 -8 7 -15 27 -15 45 0 18 -7 38
-15 45 -8 7 -15 28 -15 47 0 21 -6 36 -15 39 -8 4 -15 17 -15 30 0 14 -7 27
-15 30 -8 4 -15 17 -15 30 0 14 -7 27 -15 30 -8 4 -15 17 -15 30 0 14 -7 27
-15 30 -8 4 -15 17 -15 30 0 14 -7 27 -15 30 -8 4 -15 16 -15 28 0 12 -13 35
-30 51 -16 16 -30 37 -30 47 0 10 -7 21 -15 24 -8 4 -15 16 -15 28 0 13 -19
40 -45 66 -25 24 -45 51 -45 60 0 9 -13 29 -30 45 -16 16 -30 36 -30 45 0 8
-54 69 -120 135 -66 66 -120 127 -120 135 0 20 -71 90 -91 90 -8 0 -55 41
-104 90 -49 50 -97 90 -105 90 -9 0 -36 20 -60 45 -24 25 -51 45 -60 45 -9 0
-29 14 -45 30 -16 17 -36 30 -45 30 -9 0 -29 14 -45 30 -16 17 -36 30 -46 30
-9 0 -22 7 -29 15 -7 8 -20 15 -29 15 -10 0 -30 14 -46 30 -16 17 -36 30 -46
30 -9 0 -22 7 -29 15 -7 8 -20 15 -30 15 -10 0 -23 7 -30 15 -7 8 -20 15 -30
15 -10 0 -23 7 -30 15 -7 8 -20 15 -30 15 -10 0 -23 7 -30 15 -7 8 -20 15 -30
15 -10 0 -23 7 -30 15 -7 8 -27 15 -45 15 -18 0 -38 7 -45 15 -7 8 -20 15 -30
15 -10 0 -23 7 -30 15 -7 8 -27 15 -45 15 -18 0 -38 7 -45 15 -7 8 -20 15 -30
15 -10 0 -23 7 -30 15 -7 8 -27 15 -45 15 -18 0 -38 7 -45 15 -7 8 -27 15 -45
15 -18 0 -38 7 -45 15 -8 9 -30 15 -60 15 -30 0 -52 6 -60 15 -7 8 -27 15 -45
15 -18 0 -38 7 -45 15 -9 10 -32 15 -75 15 -43 0 -66 5 -75 15 -9 10 -32 15
-75 15 -43 0 -66 5 -75 15 -9 11 -33 15 -90 15 -57 0 -81 4 -90 15 -9 11 -35
15 -105 15 -70 0 -96 4 -105 15 -10 12 -40 15 -150 15 -110 0 -140 3 -150 15
-11 13 -285 15 -2357 15 -1866 0 -2345 -3 -2348 -12z m4435 -2043 c9 -11 33
-15 90 -15 57 0 81 -4 90 -15 8 -9 30 -15 60 -15 30 0 52 -6 60 -15 7 -8 27
-15 45 -15 18 0 38 -7 45 -15 7 -8 27 -15 45 -15 18 0 38 -7 45 -15 7 -8 20
-15 30 -15 10 0 23 -7 30 -15 7 -8 20 -15 30 -15 10 0 23 -7 30 -15 7 -8 20
-15 29 -15 10 0 30 -13 46 -30 16 -16 36 -30 44 -30 21 0 301 -280 301 -300 0
-9 14 -29 30 -45 17 -16 30 -37 30 -47 0 -10 7 -21 15 -24 8 -4 15 -16 15 -29
0 -12 7 -28 15 -35 8 -7 15 -27 15 -45 0 -18 7 -38 15 -45 9 -8 15 -30 15 -60
0 -30 6 -52 15 -60 11 -9 15 -33 15 -90 0 -57 4 -81 15 -90 12 -10 15 -48 15
-225 0 -177 -3 -215 -15 -225 -11 -9 -15 -33 -15 -90 0 -57 -4 -81 -15 -90 -8
-7 -15 -27 -15 -45 0 -18 -7 -38 -15 -45 -8 -7 -15 -23 -15 -35 0 -13 -7 -25
-15 -29 -8 -3 -15 -16 -15 -30 0 -13 -7 -26 -15 -30 -8 -3 -15 -16 -15 -30 0
-13 -7 -26 -15 -30 -8 -3 -15 -14 -15 -24 0 -10 -13 -31 -30 -47 -16 -16 -30
-36 -30 -44 0 -21 -220 -241 -240 -241 -9 0 -29 -13 -45 -30 -16 -16 -36 -30
-46 -30 -9 0 -22 -7 -29 -15 -7 -8 -20 -15 -30 -15 -10 0 -23 -7 -30 -15 -7
-8 -20 -15 -30 -15 -10 0 -23 -7 -30 -15 -7 -8 -20 -15 -30 -15 -10 0 -23 -7
-30 -15 -7 -8 -27 -15 -45 -15 -18 0 -38 -7 -45 -15 -7 -8 -27 -15 -45 -15
-18 0 -38 -7 -45 -15 -9 -10 -32 -15 -75 -15 -43 0 -66 -5 -75 -15 -9 -11 -35
-15 -105 -15 -70 0 -96 -4 -105 -15 -11 -13 -117 -15 -874 -13 l-861 3 -3
1335 c-1 734 0 1341 3 1348 3 9 194 12 908 12 792 0 906 -2 917 -15z" fill="#1A1B2E"/><path d="M11195 10758 c-3 -7 -4 -2072 -3 -4588 l3 -4575 1300 0 1300 0 5
1210 5 1210 651 3 c564 2 653 4 664 17 24 28 73 18 113 -23 20 -21 37 -45 37
-53 0 -8 14 -28 30 -44 17 -16 30 -36 30 -45 0 -9 14 -29 30 -45 17 -16 30
-36 30 -45 0 -9 14 -29 30 -45 17 -16 30 -36 30 -45 0 -9 14 -29 30 -45 17
-16 30 -36 30 -45 0 -9 20 -36 45 -60 25 -24 45 -51 45 -60 0 -9 14 -29 30
-45 17 -16 30 -36 30 -45 0 -9 14 -29 30 -45 17 -16 30 -36 30 -45 0 -9 14
-29 30 -45 17 -16 30 -36 30 -45 0 -9 14 -29 30 -45 17 -16 30 -36 30 -45 0
-9 14 -29 30 -45 17 -16 30 -36 30 -45 0 -9 14 -29 30 -45 17 -16 30 -36 30
-45 0 -9 20 -36 45 -60 25 -24 45 -51 45 -60 0 -9 14 -29 30 -45 17 -16 30
-36 30 -45 0 -9 14 -29 30 -45 17 -16 30 -36 30 -45 0 -9 14 -29 30 -45 17
-16 30 -36 30 -45 0 -9 14 -29 30 -45 17 -16 30 -36 30 -45 0 -9 14 -29 30
-45 17 -16 30 -36 30 -45 0 -9 14 -29 30 -45 17 -16 30 -36 30 -45 0 -9 14
-29 30 -45 17 -16 30 -36 30 -45 0 -9 20 -36 45 -60 25 -24 45 -51 45 -60 0
-9 14 -29 30 -45 17 -16 30 -36 30 -45 0 -9 14 -29 30 -45 17 -16 30 -36 30
-45 0 -9 14 -29 30 -45 17 -16 30 -36 30 -45 0 -9 14 -29 30 -45 17 -16 30
-36 30 -45 0 -9 13 -29 29 -45 17 -15 31 -37 33 -49 l3 -21 1393 -3 c1186 -2
1392 0 1392 12 0 8 -7 16 -15 20 -8 3 -15 14 -15 24 0 10 -20 38 -45 62 -25
24 -45 51 -45 60 0 9 -13 29 -30 45 -16 16 -30 36 -30 45 0 9 -13 29 -30 45
-16 16 -30 36 -30 45 0 9 -13 29 -30 45 -16 16 -30 36 -30 45 0 9 -13 29 -30
45 -16 16 -30 36 -30 45 0 9 -20 36 -45 60 -25 24 -45 51 -45 60 0 9 -13 29
-30 45 -16 16 -30 36 -30 45 0 9 -13 29 -30 45 -16 16 -30 36 -30 45 0 9 -13
29 -30 45 -16 16 -30 36 -30 45 0 9 -13 29 -30 45 -16 16 -30 36 -30 45 0 9
-20 36 -45 60 -25 24 -45 51 -45 60 0 9 -13 29 -30 45 -16 16 -30 36 -30 45 0
9 -13 29 -30 45 -16 16 -30 36 -30 45 0 9 -13 29 -30 45 -16 16 -30 36 -30 45
0 9 -13 29 -30 45 -16 16 -30 36 -30 45 0 9 -13 29 -30 45 -16 16 -30 36 -30
45 0 9 -20 36 -45 60 -25 24 -45 51 -45 60 0 9 -13 29 -30 45 -16 16 -30 36
-30 45 0 9 -13 29 -30 45 -16 16 -30 36 -30 45 0 9 -13 29 -30 45 -16 16 -30
36 -30 45 0 9 -13 29 -30 45 -16 16 -30 36 -30 45 0 9 -20 36 -45 60 -25 24
-45 51 -45 60 0 9 -13 29 -30 45 -16 16 -30 36 -30 45 0 9 -13 29 -30 45 -16
16 -30 36 -30 45 0 9 -13 29 -30 45 -16 16 -30 36 -30 45 0 9 -13 29 -30 45
-16 16 -30 36 -30 45 0 9 -13 29 -30 45 -16 16 -30 36 -30 45 0 9 -20 36 -45
60 -25 24 -45 51 -45 60 0 9 -13 29 -30 45 -40 38 -44 105 -6 105 13 0 29 7
36 15 7 8 20 15 29 15 10 0 30 13 46 30 16 16 36 30 46 30 9 0 22 7 29 15 7 8
20 15 29 15 10 0 30 14 46 30 16 17 36 30 46 30 9 0 22 7 29 15 7 8 20 15 29
15 9 0 37 20 61 45 24 25 51 45 60 45 9 0 29 13 45 30 16 16 36 30 45 30 8 0
49 34 90 75 41 41 81 75 90 75 20 0 240 220 240 240 0 9 34 49 75 90 41 41 75
82 75 90 0 9 20 36 45 60 25 24 45 51 45 60 0 9 14 29 30 45 17 16 30 39 30
51 0 12 7 24 15 28 8 3 15 14 15 24 0 10 14 31 30 47 21 20 30 38 30 61 0 17
7 37 15 44 8 7 15 23 15 35 0 13 7 25 15 29 8 3 15 16 15 30 0 13 7 26 15 30
8 3 15 16 15 30 0 13 7 26 15 30 8 3 15 16 15 30 0 13 7 26 15 30 9 3 15 18
15 39 0 19 7 40 15 47 8 7 15 23 15 35 0 13 7 25 15 29 9 3 15 18 15 39 0 19
7 40 15 47 9 8 15 30 15 60 0 30 6 52 15 60 9 8 15 30 15 60 0 30 6 52 15 60
10 9 15 32 15 75 0 43 5 66 15 75 12 10 15 37 15 120 0 83 3 110 15 120 13 11
15 70 15 420 0 350 -2 409 -15 420 -12 10 -15 37 -15 120 0 83 -3 110 -15 120
-11 9 -15 33 -15 90 0 57 -4 81 -15 90 -9 8 -15 30 -15 60 0 30 -6 52 -15 60
-9 8 -15 30 -15 60 0 30 -6 52 -15 60 -8 7 -15 28 -15 47 0 21 -6 36 -15 39
-8 4 -15 16 -15 29 0 12 -7 28 -15 35 -8 7 -15 28 -15 47 0 21 -6 36 -15 39
-8 4 -15 17 -15 30 0 14 -7 27 -15 30 -8 4 -15 16 -15 29 0 12 -7 28 -15 35
-8 7 -15 28 -15 47 0 21 -6 36 -15 39 -8 4 -15 17 -15 30 0 14 -7 27 -15 30
-8 4 -15 16 -15 28 0 12 -13 35 -30 51 -16 16 -30 37 -30 47 0 10 -7 21 -15
24 -8 4 -15 16 -15 28 0 12 -13 35 -30 51 -16 16 -30 36 -30 45 0 9 -13 29
-30 45 -16 16 -30 36 -30 45 0 8 -27 42 -60 75 -33 33 -60 66 -60 75 0 20
-370 390 -390 390 -9 0 -42 27 -75 60 -33 33 -67 60 -75 60 -9 0 -29 14 -45
30 -16 17 -36 30 -45 30 -9 0 -29 14 -45 30 -16 17 -36 30 -45 30 -9 0 -29 14
-45 30 -16 17 -36 30 -46 30 -9 0 -22 7 -29 15 -7 8 -20 15 -29 15 -10 0 -30
14 -46 30 -16 17 -36 30 -46 30 -9 0 -22 7 -29 15 -7 8 -27 15 -45 15 -18 0
-38 7 -45 15 -7 8 -20 15 -30 15 -10 0 -23 7 -30 15 -7 8 -20 15 -30 15 -10 0
-23 7 -30 15 -7 8 -27 15 -45 15 -18 0 -38 7 -45 15 -7 8 -20 15 -30 15 -10 0
-23 7 -30 15 -7 8 -20 15 -30 15 -10 0 -23 7 -30 15 -7 8 -27 15 -45 15 -18 0
-38 7 -45 15 -7 8 -27 15 -45 15 -18 0 -38 7 -45 15 -7 8 -27 15 -45 15 -18 0
-38 7 -45 15 -8 9 -30 15 -60 15 -30 0 -52 6 -60 15 -7 8 -27 15 -45 15 -18 0
-38 7 -45 15 -9 11 -33 15 -90 15 -57 0 -81 4 -90 15 -9 10 -32 15 -75 15 -43
0 -66 5 -75 15 -9 10 -32 15 -75 15 -43 0 -66 5 -75 15 -10 12 -37 15 -120 15
-83 0 -110 3 -120 15 -10 12 -40 15 -150 15 -110 0 -140 3 -150 15 -11 13
-283 15 -2342 15 -1854 0 -2330 -3 -2333 -12z m4435 -2043 c9 -11 33 -15 90
-15 57 0 81 -4 90 -15 8 -9 30 -15 60 -15 30 0 52 -6 60 -15 7 -8 27 -15 45
-15 18 0 38 -7 45 -15 7 -8 27 -15 45 -15 18 0 38 -7 45 -15 7 -8 20 -15 30
-15 10 0 23 -7 30 -15 7 -8 20 -15 30 -15 10 0 23 -7 30 -15 7 -8 20 -15 30
-15 10 0 23 -7 30 -15 7 -8 20 -15 29 -15 9 0 43 -27 76 -60 33 -33 66 -60 74
-60 20 0 91 -70 91 -90 0 -9 20 -36 45 -60 25 -24 45 -51 45 -60 0 -9 14 -29
30 -45 17 -16 30 -37 30 -47 0 -10 7 -21 15 -24 8 -4 15 -16 15 -29 0 -12 7
-28 15 -35 8 -7 15 -27 15 -45 0 -18 7 -38 15 -45 9 -8 15 -30 15 -60 0 -30 6
-52 15 -60 10 -9 15 -32 15 -75 0 -43 5 -66 15 -75 13 -10 15 -50 15 -240 0
-190 -2 -230 -15 -240 -10 -9 -15 -32 -15 -75 0 -43 -5 -66 -15 -75 -8 -7 -15
-27 -15 -45 0 -18 -7 -38 -15 -45 -8 -7 -15 -27 -15 -45 0 -18 -7 -38 -15 -45
-8 -7 -15 -27 -15 -45 0 -18 -7 -38 -15 -45 -8 -7 -15 -20 -15 -29 0 -10 -13
-30 -30 -46 -16 -16 -30 -36 -30 -44 0 -21 -280 -301 -301 -301 -9 0 -22 -7
-29 -15 -7 -8 -20 -15 -29 -15 -10 0 -30 -13 -46 -30 -20 -21 -38 -30 -61 -30
-17 0 -37 -7 -44 -15 -7 -8 -20 -15 -30 -15 -10 0 -23 -7 -30 -15 -7 -8 -27
-15 -45 -15 -18 0 -38 -7 -45 -15 -7 -8 -27 -15 -45 -15 -18 0 -38 -7 -45 -15
-9 -10 -32 -15 -75 -15 -43 0 -66 -5 -75 -15 -9 -11 -35 -15 -105 -15 -70 0
-96 -4 -105 -15 -11 -13 -117 -15 -874 -13 l-861 3 -3 1335 c-1 734 0 1341 3
1348 3 9 194 12 908 12 792 0 906 -2 917 -15z" fill="#1A1B2E"/><path d="M20855 10758 c-3 -7 -4 -2072 -3 -4588 l3 -4575 1300 0 1300 0 0
4585 0 4585 -1298 3 c-1033 2 -1299 0 -1302 -10z" fill="#1A1B2E"/><path d="M24720 6555 c0 -3904 2 -4575 14 -4575 8 0 16 7 20 15 3 8 13 15 23
15 10 0 130 112 273 255 183 183 261 255 277 255 19 0 23 6 23 30 0 24 4 30
23 30 16 0 102 80 307 285 157 157 292 285 300 285 8 0 116 101 240 225 160
161 231 225 247 225 18 0 23 6 23 26 0 27 34 63 60 64 8 0 143 128 300 285
205 205 291 285 307 285 19 0 23 6 23 30 0 24 4 30 23 30 16 0 90 68 262 240
132 132 247 240 255 240 8 0 137 122 285 270 148 149 277 270 285 270 8 0 110
94 225 210 149 149 216 210 232 210 17 0 23 6 23 23 0 25 67 97 90 97 9 0 130
115 270 255 183 183 261 255 277 255 18 0 23 6 23 26 0 27 34 63 60 64 8 0
137 122 285 270 194 194 276 270 292 270 19 0 23 6 23 30 0 25 4 30 23 30 30
0 130 100 125 126 -2 11 -13 20 -24 22 -12 2 -34 16 -49 33 -16 16 -36 29 -45
29 -9 0 -29 14 -45 30 -16 17 -36 30 -45 30 -9 0 -36 20 -60 45 -24 25 -52 45
-61 45 -9 0 -22 7 -29 15 -7 8 -20 15 -29 15 -9 0 -43 27 -76 60 -33 33 -67
60 -75 60 -9 0 -29 14 -45 30 -16 17 -36 30 -45 30 -9 0 -29 14 -45 30 -16 17
-36 30 -45 30 -9 0 -36 20 -60 45 -24 25 -51 45 -60 45 -9 0 -36 20 -60 45
-24 25 -51 45 -60 45 -9 0 -29 14 -45 30 -16 17 -36 30 -45 30 -9 0 -36 20
-60 45 -24 25 -51 45 -60 45 -9 0 -29 14 -45 30 -16 17 -36 30 -45 30 -9 0
-29 14 -45 30 -16 17 -36 30 -45 30 -9 0 -36 20 -60 45 -24 25 -51 45 -60 45
-9 0 -29 14 -45 30 -16 17 -36 30 -45 30 -9 0 -36 20 -60 45 -24 25 -51 45
-60 45 -9 0 -36 20 -60 45 -24 25 -51 45 -60 45 -9 0 -29 14 -45 30 -16 17
-36 30 -45 30 -9 0 -36 20 -60 45 -24 25 -51 45 -60 45 -9 0 -29 14 -45 30
-16 17 -36 30 -45 30 -9 0 -29 14 -45 30 -16 17 -36 30 -45 30 -9 0 -36 20
-60 45 -24 25 -51 45 -60 45 -9 0 -29 14 -45 30 -16 17 -36 30 -45 30 -9 0
-36 20 -60 45 -24 25 -51 45 -60 45 -9 0 -36 20 -60 45 -24 25 -51 45 -60 45
-9 0 -29 14 -45 30 -16 17 -36 30 -45 30 -9 0 -29 14 -45 30 -16 17 -36 30
-45 30 -8 0 -42 27 -75 60 -33 33 -67 60 -76 60 -9 0 -22 7 -29 15 -7 8 -20
15 -29 15 -9 0 -37 20 -61 45 -24 25 -51 45 -60 45 -9 0 -29 14 -45 30 -16 17
-36 30 -45 30 -8 0 -42 27 -75 60 -33 33 -67 60 -75 60 -9 0 -29 14 -45 30
-16 17 -36 30 -45 30 -9 0 -29 14 -45 30 -16 17 -36 30 -45 30 -9 0 -36 20
-60 45 -24 25 -51 45 -60 45 -9 0 -29 14 -45 30 -16 17 -36 30 -45 30 -9 0
-36 20 -60 45 -24 25 -51 45 -60 45 -9 0 -29 14 -45 30 -16 17 -36 30 -45 30
-9 0 -29 14 -45 30 -16 17 -36 30 -45 30 -9 0 -36 20 -60 45 -24 25 -51 45
-60 45 -9 0 -42 27 -75 60 -33 33 -67 60 -76 60 -9 0 -22 7 -29 15 -7 8 -20
15 -29 15 -9 0 -37 20 -61 45 -24 25 -51 45 -60 45 -9 0 -36 20 -60 45 -24 25
-52 45 -61 45 -9 0 -22 7 -29 15 -7 8 -20 15 -29 15 -9 0 -37 20 -61 45 -24
25 -51 45 -60 45 -9 0 -36 20 -60 45 -24 25 -51 45 -60 45 -9 0 -29 14 -45 30
-16 17 -36 30 -45 30 -9 0 -36 20 -60 45 -24 25 -51 45 -60 45 -9 0 -29 14
-45 30 -16 17 -36 30 -45 30 -9 0 -36 20 -60 45 -24 25 -51 45 -60 45 -9 0
-29 14 -45 30 -16 17 -37 30 -47 30 -10 0 -21 7 -24 15 -4 8 -12 15 -20 15
-12 0 -14 -671 -14 -4575z" fill="#12B981"/><path d="M34795 10964 c-114 -118 -166 -164 -182 -164 -17 0 -23 -6 -23 -23 0
-25 -96 -127 -120 -127 -8 0 -143 -128 -300 -285 -205 -205 -291 -285 -307
-285 -17 0 -23 -6 -23 -23 0 -30 -98 -127 -128 -127 -18 0 -22 -6 -22 -30 0
-24 -4 -30 -23 -30 -16 0 -110 -88 -337 -315 -227 -227 -321 -315 -337 -315
-19 0 -23 -6 -23 -30 0 -25 -4 -30 -23 -30 -27 0 -67 -38 -67 -64 0 -23 -39
-55 -67 -56 -19 0 -23 -6 -23 -30 0 -24 -4 -30 -23 -30 -16 0 -110 -88 -337
-315 -227 -227 -321 -315 -337 -315 -19 0 -23 -6 -23 -30 0 -25 -4 -30 -23
-30 -30 0 -127 -98 -127 -128 0 -16 -6 -22 -23 -22 -16 0 -106 -84 -322 -300
-165 -165 -307 -300 -316 -300 -21 0 -59 -42 -59 -64 0 -20 -38 -55 -60 -56
-8 0 -157 -142 -330 -315 -173 -173 -322 -315 -330 -315 -8 0 -197 -182 -420
-405 -222 -222 -412 -405 -422 -407 -14 -2 -388 -363 -388 -375 0 -10 78 -73
91 -73 8 0 28 -14 44 -30 16 -17 36 -30 45 -30 9 0 29 -14 45 -30 16 -17 36
-30 45 -30 9 0 29 -13 45 -30 16 -16 36 -30 46 -30 9 0 22 -7 29 -15 7 -8 20
-15 29 -15 10 0 30 -13 46 -30 16 -17 36 -30 45 -30 9 0 29 -14 45 -30 16 -17
36 -30 46 -30 9 0 22 -7 29 -15 7 -8 20 -15 29 -15 10 0 30 -14 46 -30 16 -16
36 -30 45 -30 9 0 29 -14 45 -30 16 -17 36 -30 46 -30 9 0 22 -7 29 -15 7 -8
20 -15 29 -15 9 0 37 -20 61 -45 24 -25 52 -45 61 -45 9 0 22 -7 29 -15 7 -8
20 -15 29 -15 10 0 30 -13 46 -30 16 -16 36 -30 45 -30 9 0 29 -14 45 -30 16
-17 36 -30 46 -30 9 0 22 -7 29 -15 7 -8 20 -15 29 -15 10 0 30 -13 46 -30 16
-16 36 -30 45 -30 9 0 29 -14 45 -30 16 -17 36 -30 45 -30 9 0 29 -13 45 -30
16 -16 36 -30 46 -30 9 0 22 -7 29 -15 7 -8 20 -15 29 -15 10 0 30 -13 46 -30
16 -16 36 -30 45 -30 9 0 29 -13 45 -30 16 -16 36 -30 45 -30 9 0 29 -14 45
-30 16 -17 36 -30 45 -30 9 0 29 -13 45 -30 16 -16 36 -30 46 -30 9 0 22 -7
29 -15 7 -8 20 -15 29 -15 10 0 30 -14 46 -30 16 -16 36 -30 45 -30 9 0 29
-13 45 -30 16 -17 36 -30 45 -30 9 0 29 -13 45 -30 16 -17 36 -30 46 -30 9 0
22 -7 29 -15 7 -8 20 -15 29 -15 10 0 30 -14 46 -30 16 -17 36 -30 45 -30 9 0
29 -13 45 -30 16 -16 36 -30 46 -30 9 0 22 -7 29 -15 7 -8 20 -15 29 -15 9 0
37 -20 61 -45 24 -25 52 -45 61 -45 9 0 22 -7 29 -15 7 -8 20 -15 30 -15 10 0
23 -7 30 -15 7 -8 20 -15 29 -15 9 0 37 -20 61 -45 24 -25 52 -45 61 -45 9 0
22 -7 29 -15 7 -8 20 -15 29 -15 10 0 30 -14 46 -30 16 -17 36 -30 45 -30 9 0
29 -13 45 -30 16 -16 36 -30 46 -30 9 0 22 -7 29 -15 7 -8 20 -15 29 -15 9 0
37 -20 61 -45 24 -25 52 -45 61 -45 9 0 22 -7 29 -15 7 -8 20 -15 29 -15 10 0
30 -13 46 -30 16 -16 36 -30 45 -30 9 0 29 -13 45 -30 16 -16 36 -30 45 -30 9
0 29 -13 45 -30 16 -17 36 -30 46 -30 9 0 22 -7 29 -15 7 -8 20 -15 29 -15 10
0 30 -14 46 -30 16 -17 36 -30 45 -30 9 0 29 -14 45 -30 16 -17 36 -30 45 -30
9 0 29 -13 45 -30 16 -16 36 -30 46 -30 9 0 22 -7 29 -15 7 -8 20 -15 29 -15
9 0 37 -20 61 -45 24 -25 52 -45 61 -45 9 0 22 -7 29 -15 7 -8 20 -15 29 -15
10 0 30 -14 46 -30 16 -17 36 -30 46 -30 9 0 22 -7 29 -15 7 -8 20 -15 29 -15
10 0 30 -14 46 -30 16 -17 36 -30 45 -30 9 0 29 -14 45 -30 16 -17 36 -30 45
-30 9 0 29 -14 45 -30 16 -17 36 -30 45 -30 9 0 29 -14 45 -30 16 -17 36 -30
46 -30 9 0 22 -7 29 -15 7 -8 20 -15 29 -15 10 0 30 -14 46 -30 16 -17 36 -30
46 -30 9 0 22 -7 29 -15 7 -8 20 -15 29 -15 9 0 37 -20 61 -45 24 -25 52 -45
61 -45 9 0 22 -7 29 -15 7 -8 20 -15 29 -15 9 0 37 -20 61 -45 24 -25 52 -45
61 -45 9 0 22 -7 29 -15 7 -8 20 -15 30 -15 10 0 23 -7 30 -15 7 -8 20 -15 29
-15 9 0 37 -20 61 -45 24 -25 52 -45 61 -45 9 0 22 -7 29 -15 7 -8 20 -15 30
-15 10 0 23 -7 30 -15 7 -9 23 -15 34 -13 21 3 21 3 24 4576 2 3655 0 4572
-10 4571 -7 -1 -85 -76 -173 -165z" fill="#12B981"/><path d="M1710 10785 c0 -13 250 -15 2190 -15 1940 0 2190 2 2190 15 0 13
-250 15 -2190 15 -1940 0 -2190 -2 -2190 -15z" fill="#12B981"/><path d="M11190 10785 c0 -13 248 -15 2175 -15 1927 0 2175 2 2175 15 0 13
-248 15 -2175 15 -1927 0 -2175 -2 -2175 -15z" fill="#12B981"/><path d="M20850 10785 c0 -13 152 -15 1305 -15 1153 0 1305 2 1305 15 0 13
-152 15 -1305 15 -1153 0 -1305 -2 -1305 -15z" fill="#12B981"/><path d="M1710 1575 c0 -13 152 -15 1305 -15 1153 0 1305 2 1305 15 0 13 -152
15 -1305 15 -1153 0 -1305 -2 -1305 -15z" fill="#12B981"/><path d="M11190 1575 c0 -13 152 -15 1305 -15 1153 0 1305 2 1305 15 0 13
-152 15 -1305 15 -1153 0 -1305 -2 -1305 -15z" fill="#12B981"/><path d="M16890 1575 c0 -13 160 -15 1380 -15 1220 0 1380 2 1380 15 0 13
-160 15 -1380 15 -1220 0 -1380 -2 -1380 -15z" fill="#12B981"/><path d="M20850 1575 c0 -13 152 -15 1305 -15 1153 0 1305 2 1305 15 0 13
-152 15 -1305 15 -1153 0 -1305 -2 -1305 -15z" fill="#12B981"/></g><path transform="translate(161.807,1678.301) scale(0.19560,-0.19560)" d="M307.0 -6Q228.0 -6 157.0 19.5Q86.0 45 47.0 85L76.0 142Q113.0 105 175.5 81.0Q238.0 57 307.0 57Q405.0 57 450.0 93.0Q495.0 129 495.0 181Q495.0 222 472.0 246.5Q449.0 271 410.5 285.5Q372.0 300 326.0 311.0Q280.0 322 234.0 334.5Q188.0 347 149.5 368.0Q111.0 389 87.5 423.5Q64.0 458 64.0 514Q64.0 565 91.5 609.0Q119.0 653 176.0 679.5Q233.0 706 322.0 706Q381.0 706 439.0 689.5Q497.0 673 539.0 644L514.0 585Q469.0 615 418.5 629.0Q368.0 643 322.0 643Q226.0 643 181.5 606.0Q137.0 569 137.0 516Q137.0 475 160.5 450.5Q184.0 426 222.5 411.0Q261.0 396 307.0 385.5Q353.0 375 398.5 362.0Q444.0 349 482.5 328.5Q521.0 308 544.5 274.0Q568.0 240 568.0 185Q568.0 134 540.0 90.5Q512.0 47 454.5 20.5Q397.0 -6 307.0 -6ZM1205.0 0V636H959.0V700H1525.0V636H1279.0V0ZM1983.0 0V700H2245.0Q2378.0 700 2454.5 636.5Q2531.0 573 2531.0 460Q2531.0 378 2489.0 321.5Q2447.0 265 2371.0 240L2542.0 0H2461.0L2301.0 225Q2274.0 222 2245.0 222H2057.0V0ZM2057.0 285H2243.0Q2348.0 285 2402.5 331.0Q2457.0 377 2457.0 460Q2457.0 544 2402.5 590.0Q2348.0 636 2243.0 636H2057.0ZM2934.0 0 3254.0 700H3327.0L3647.0 0H3569.0L3486.0 187H3095.0L3011.0 0ZM3122.0 247H3459.0L3290.0 623ZM4239.0 0V636H3993.0V700H4559.0V636H4313.0V0ZM5017.0 0V700H5497.0V636H5091.0V387H5453.0V324H5091.0V64H5512.0V0ZM6333.0 -6Q6253.0 -6 6185.5 20.5Q6118.0 47 6068.5 95.0Q6019.0 143 5991.5 208.0Q5964.0 273 5964.0 350Q5964.0 427 5991.5 492.0Q6019.0 557 6069.0 605.0Q6119.0 653 6186.5 679.5Q6254.0 706 6334.0 706Q6413.0 706 6480.0 680.5Q6547.0 655 6594.0 605L6548.0 558Q6504.0 602 6451.0 621.0Q6398.0 640 6337.0 640Q6250.0 640 6182.5 602.5Q6115.0 565 6076.0 499.0Q6037.0 433 6037.0 350Q6037.0 267 6076.0 201.5Q6115.0 136 6182.5 98.0Q6250.0 60 6336.0 60Q6386.0 60 6432.5 72.5Q6479.0 85 6519.0 115V350H6590.0V83Q6540.0 38 6473.0 16.0Q6406.0 -6 6333.0 -6ZM7139.0 0V700H7213.0V0ZM8085.0 -6Q8006.0 -6 7939.5 20.5Q7873.0 47 7823.5 95.0Q7774.0 143 7746.5 208.0Q7719.0 273 7719.0 350Q7719.0 427 7746.5 492.0Q7774.0 557 7823.5 605.0Q7873.0 653 7940.0 679.5Q8007.0 706 8086.0 706Q8163.0 706 8229.5 680.5Q8296.0 655 8342.0 604L8295.0 557Q8252.0 601 8200.0 620.5Q8148.0 640 8088.0 640Q8004.0 640 7937.0 602.0Q7870.0 564 7831.0 498.5Q7792.0 433 7792.0 350Q7792.0 267 7831.0 201.5Q7870.0 136 7937.0 98.0Q8004.0 60 8088.0 60Q8148.0 60 8200.0 80.0Q8252.0 100 8295.0 144L8342.0 97Q8296.0 46 8229.0 20.0Q8162.0 -6 8085.0 -6ZM9736.0 -6Q9657.0 -6 9590.5 20.5Q9524.0 47 9474.5 95.0Q9425.0 143 9397.5 208.0Q9370.0 273 9370.0 350Q9370.0 427 9397.5 492.0Q9425.0 557 9474.5 605.0Q9524.0 653 9591.0 679.5Q9658.0 706 9737.0 706Q9814.0 706 9880.5 680.5Q9947.0 655 9993.0 604L9946.0 557Q9903.0 601 9851.0 620.5Q9799.0 640 9739.0 640Q9655.0 640 9588.0 602.0Q9521.0 564 9482.0 498.5Q9443.0 433 9443.0 350Q9443.0 267 9482.0 201.5Q9521.0 136 9588.0 98.0Q9655.0 60 9739.0 60Q9799.0 60 9851.0 80.0Q9903.0 100 9946.0 144L9993.0 97Q9947.0 46 9880.0 20.0Q9813.0 -6 9736.0 -6ZM10787.0 -6Q10707.0 -6 10640.0 20.5Q10573.0 47 10523.5 95.0Q10474.0 143 10446.5 208.0Q10419.0 273 10419.0 350Q10419.0 427 10446.5 492.0Q10474.0 557 10523.5 605.0Q10573.0 653 10640.0 679.5Q10707.0 706 10787.0 706Q10866.0 706 10933.0 679.5Q11000.0 653 11049.5 605.0Q11099.0 557 11126.5 492.0Q11154.0 427 11154.0 350Q11154.0 273 11126.5 208.0Q11099.0 143 11049.5 95.0Q11000.0 47 10933.0 20.5Q10866.0 -6 10787.0 -6ZM10787.0 60Q10871.0 60 10937.5 97.5Q11004.0 135 11042.0 201.0Q11080.0 267 11080.0 350Q11080.0 433 11042.0 499.0Q11004.0 565 10937.5 602.5Q10871.0 640 10787.0 640Q10702.0 640 10635.5 602.5Q10569.0 565 10530.5 499.0Q10492.0 433 10492.0 350Q10492.0 267 10530.5 201.0Q10569.0 135 10635.5 97.5Q10702.0 60 10787.0 60ZM11660.0 0V700H11721.0L12025.0 181L12326.0 700H12387.0V0H12316.0V559L12041.0 89H12006.0L11731.0 555V0ZM12955.0 0V700H13016.0L13320.0 181L13621.0 700H13682.0V0H13611.0V559L13336.0 89H13301.0L13026.0 555V0ZM14532.0 -6Q14398.0 -6 14321.0 71.0Q14244.0 148 14244.0 299V700H14318.0V302Q14318.0 178 14374.0 119.0Q14430.0 60 14532.0 60Q14635.0 60 14691.0 119.0Q14747.0 178 14747.0 302V700H14819.0V299Q14819.0 148 14742.5 71.0Q14666.0 -6 14532.0 -6ZM15382.0 0V700H15443.0L15894.0 132V700H15967.0V0H15906.0L15456.0 568V0ZM16535.0 0V700H16609.0V0ZM17481.0 -6Q17402.0 -6 17335.5 20.5Q17269.0 47 17219.5 95.0Q17170.0 143 17142.5 208.0Q17115.0 273 17115.0 350Q17115.0 427 17142.5 492.0Q17170.0 557 17219.5 605.0Q17269.0 653 17336.0 679.5Q17403.0 706 17482.0 706Q17559.0 706 17625.5 680.5Q17692.0 655 17738.0 604L17691.0 557Q17648.0 601 17596.0 620.5Q17544.0 640 17484.0 640Q17400.0 640 17333.0 602.0Q17266.0 564 17227.0 498.5Q17188.0 433 17188.0 350Q17188.0 267 17227.0 201.5Q17266.0 136 17333.0 98.0Q17400.0 60 17484.0 60Q17544.0 60 17596.0 80.0Q17648.0 100 17691.0 144L17738.0 97Q17692.0 46 17625.0 20.0Q17558.0 -6 17481.0 -6ZM18114.0 0 18434.0 700H18507.0L18827.0 0H18749.0L18666.0 187H18275.0L18191.0 0ZM18302.0 247H18639.0L18470.0 623ZM19419.0 0V636H19173.0V700H19739.0V636H19493.0V0ZM20197.0 0V700H20271.0V0ZM21145.0 -6Q21065.0 -6 20998.0 20.5Q20931.0 47 20881.5 95.0Q20832.0 143 20804.5 208.0Q20777.0 273 20777.0 350Q20777.0 427 20804.5 492.0Q20832.0 557 20881.5 605.0Q20931.0 653 20998.0 679.5Q21065.0 706 21145.0 706Q21224.0 706 21291.0 679.5Q21358.0 653 21407.5 605.0Q21457.0 557 21484.5 492.0Q21512.0 427 21512.0 350Q21512.0 273 21484.5 208.0Q21457.0 143 21407.5 95.0Q21358.0 47 21291.0 20.5Q21224.0 -6 21145.0 -6ZM21145.0 60Q21229.0 60 21295.5 97.5Q21362.0 135 21400.0 201.0Q21438.0 267 21438.0 350Q21438.0 433 21400.0 499.0Q21362.0 565 21295.5 602.5Q21229.0 640 21145.0 640Q21060.0 640 20993.5 602.5Q20927.0 565 20888.5 499.0Q20850.0 433 20850.0 350Q20850.0 267 20888.5 201.0Q20927.0 135 20993.5 97.5Q21060.0 60 21145.0 60ZM22018.0 0V700H22079.0L22530.0 132V700H22603.0V0H22542.0L22092.0 568V0Z" fill="#1A1B2E"/></svg>
